<svg id="Group_2028" data-name="Group 2028" xmlns="http://www.w3.org/2000/svg" width="250.51" height="250.511" viewBox="0 0 250.51 250.511">
  <g id="Path_88" data-name="Path 88" fill="#4a8ac4">
    <path d="M 125.255256652832 249.5105133056641 C 116.8240356445313 249.5105133056641 108.3984146118164 248.6611633300781 100.2124404907227 246.9860687255859 C 92.23500823974609 245.3536376953125 84.38813018798828 242.9178466796875 76.88981628417969 239.7463226318359 C 69.52738189697266 236.6322937011719 62.4262580871582 232.7779083251953 55.78366470336914 228.2902526855469 C 49.20391464233398 223.8450622558594 43.01657104492188 218.7400360107422 37.39353942871094 213.1169738769531 C 31.77047538757324 207.4939422607422 26.66544342041016 201.3065948486328 22.22025680541992 194.7268524169922 C 17.73260116577148 188.0842590332031 13.87822532653809 180.9831390380859 10.76419448852539 173.6206970214844 C 7.592662811279297 166.1223754882813 5.156881809234619 158.2755126953125 3.524444103240967 150.2980651855469 C 1.849350452423096 142.1121063232422 1.000006675720215 133.6864776611328 1.000006675720215 125.255256652832 C 1.000006675720215 116.8240356445313 1.849350452423096 108.3984146118164 3.524444103240967 100.2124404907227 C 5.156881809234619 92.23500823974609 7.592662811279297 84.38813018798828 10.76419448852539 76.88981628417969 C 13.87822532653809 69.52738189697266 17.73260116577148 62.4262580871582 22.22025680541992 55.78366470336914 C 26.66544342041016 49.20391464233398 31.77047538757324 43.01657104492188 37.39353942871094 37.39353942871094 C 43.01657104492188 31.77047538757324 49.20391464233398 26.66544342041016 55.78366470336914 22.22025680541992 C 62.4262580871582 17.73260116577148 69.52738189697266 13.87822532653809 76.88981628417969 10.76419448852539 C 84.38813018798828 7.592662811279297 92.23500823974609 5.156881809234619 100.2124404907227 3.524444103240967 C 108.3984146118164 1.849350452423096 116.8240356445313 1.000006675720215 125.255256652832 1.000006675720215 C 133.6864776611328 1.000006675720215 142.1121063232422 1.849350452423096 150.2980651855469 3.524444103240967 C 158.2755126953125 5.156881809234619 166.1223754882813 7.592662811279297 173.6206970214844 10.76419448852539 C 180.9831390380859 13.87822532653809 188.0842590332031 17.73260116577148 194.7268524169922 22.22025680541992 C 201.3065948486328 26.66544342041016 207.4939422607422 31.77047538757324 213.1169738769531 37.39353942871094 C 218.7400360107422 43.01657104492188 223.8450622558594 49.20391464233398 228.2902526855469 55.78366470336914 C 232.7779083251953 62.4262580871582 236.6322937011719 69.52738189697266 239.7463226318359 76.88981628417969 C 242.9178466796875 84.38813018798828 245.3536376953125 92.23500823974609 246.9860687255859 100.2124404907227 C 248.6611633300781 108.3984146118164 249.5105133056641 116.8240356445313 249.5105133056641 125.255256652832 C 249.5105133056641 133.6864776611328 248.6611633300781 142.1121063232422 246.9860687255859 150.2980651855469 C 245.3536376953125 158.2755126953125 242.9178466796875 166.1223754882813 239.7463226318359 173.6206970214844 C 236.6322937011719 180.9831390380859 232.7779083251953 188.0842590332031 228.2902526855469 194.7268524169922 C 223.8450622558594 201.3065948486328 218.7400360107422 207.4939422607422 213.1169738769531 213.1169738769531 C 207.4939422607422 218.7400360107422 201.3065948486328 223.8450622558594 194.7268524169922 228.2902526855469 C 188.0842590332031 232.7779083251953 180.9831390380859 236.6322937011719 173.6206970214844 239.7463226318359 C 166.1223754882813 242.9178466796875 158.2755126953125 245.3536376953125 150.2980651855469 246.9860687255859 C 142.1121063232422 248.6611633300781 133.6864776611328 249.5105133056641 125.255256652832 249.5105133056641 Z" stroke="none"/>
    <path d="M 125.255256652832 1.999984741210938 C 116.8912200927734 1.999984741210938 108.5330505371094 2.842483520507813 100.4128875732422 4.504119873046875 C 92.5001220703125 6.123321533203125 84.71688842773438 8.539352416992188 77.27935791015625 11.68519592285156 C 69.97642517089844 14.77406311035156 62.93255615234375 18.59735107421875 56.34346008300781 23.04885864257813 C 49.81645202636719 27.45841979980469 43.67869567871094 32.5225830078125 38.10061645507813 38.10061645507813 C 32.5225830078125 43.67869567871094 27.45841979980469 49.81645202636719 23.04885864257813 56.34346008300781 C 18.59735107421875 62.93255615234375 14.77406311035156 69.97642517089844 11.68519592285156 77.27935791015625 C 8.539352416992188 84.71688842773438 6.123321533203125 92.5001220703125 4.504119873046875 100.4128875732422 C 2.842483520507813 108.5330505371094 1.999984741210938 116.8912200927734 1.999984741210938 125.255256652832 C 1.999984741210938 133.6192626953125 2.842483520507813 141.9774475097656 4.504119873046875 150.0975952148438 C 6.123321533203125 158.0103454589844 8.539352416992188 165.7936248779297 11.68519592285156 173.2311248779297 C 14.77406311035156 180.5340881347656 18.59735107421875 187.5779571533203 23.04885864257813 194.1670227050781 C 27.45841979980469 200.6940612792969 32.5225830078125 206.8318176269531 38.10061645507813 212.4098815917969 C 43.67869567871094 217.9879150390625 49.81645202636719 223.0520629882813 56.34346008300781 227.4616241455078 C 62.93255615234375 231.9131622314453 69.97642517089844 235.7364501953125 77.27935791015625 238.8253173828125 C 84.71688842773438 241.9711303710938 92.5001220703125 244.3871917724609 100.4128875732422 246.0063934326172 C 108.5330505371094 247.6680297851563 116.8912200927734 248.5105285644531 125.255256652832 248.5105285644531 C 133.6192626953125 248.5105285644531 141.9774475097656 247.6680297851563 150.0975952148438 246.0063934326172 C 158.0103454589844 244.3871917724609 165.7936248779297 241.9711303710938 173.2311248779297 238.8253173828125 C 180.5340881347656 235.7364501953125 187.5779571533203 231.9131622314453 194.1670227050781 227.4616241455078 C 200.6940612792969 223.0520629882813 206.8318176269531 217.9879150390625 212.4098815917969 212.4098815917969 C 217.9879150390625 206.8318176269531 223.0520629882813 200.6940612792969 227.4616241455078 194.1670227050781 C 231.9131622314453 187.5779571533203 235.7364501953125 180.5340881347656 238.8253173828125 173.2311248779297 C 241.9711303710938 165.7936248779297 244.3871917724609 158.0103454589844 246.0063934326172 150.0975952148438 C 247.6680297851563 141.9774475097656 248.5105285644531 133.6192626953125 248.5105285644531 125.255256652832 C 248.5105285644531 116.8912200927734 247.6680297851563 108.5330505371094 246.0063934326172 100.4128875732422 C 244.3871917724609 92.5001220703125 241.9711303710938 84.71688842773438 238.8253173828125 77.27935791015625 C 235.7364501953125 69.97642517089844 231.9131622314453 62.93255615234375 227.4616241455078 56.34346008300781 C 223.0520629882813 49.81645202636719 217.9879150390625 43.67869567871094 212.4098815917969 38.10061645507813 C 206.8318176269531 32.5225830078125 200.6940612792969 27.45841979980469 194.1670227050781 23.04885864257813 C 187.5779571533203 18.59735107421875 180.5340881347656 14.77406311035156 173.2311248779297 11.68519592285156 C 165.7936248779297 8.539352416992188 158.0103454589844 6.123321533203125 150.0975952148438 4.504119873046875 C 141.9774475097656 2.842483520507813 133.6192626953125 1.999984741210938 125.255256652832 1.999984741210938 M 125.255256652832 -1.52587890625e-05 C 194.4317932128906 -1.52587890625e-05 250.5105285644531 56.07868957519531 250.5105285644531 125.255256652832 C 250.5105285644531 194.4317932128906 194.4317932128906 250.5105285644531 125.255256652832 250.5105285644531 C 56.07868957519531 250.5105285644531 -1.52587890625e-05 194.4317932128906 -1.52587890625e-05 125.255256652832 C -1.52587890625e-05 56.07868957519531 56.07868957519531 -1.52587890625e-05 125.255256652832 -1.52587890625e-05 Z" stroke="none" fill="#fffdfd"/>
  </g>
  <g id="Intersection_1" data-name="Intersection 1" transform="translate(124.467 0.005)" fill="#94cce6">
    <path d="M 1.000009655952454 124.2493896484375 L 1.000009655952454 1.012594938278198 C 10.28549575805664 1.166158199310303 19.51987457275391 2.348978281021118 28.4652099609375 4.531444072723389 C 37.47866058349609 6.730510711669922 46.25889205932617 9.958027839660645 54.56202697753906 14.12432765960693 C 62.71989440917969 18.21774482727051 70.44907379150391 23.23237800598145 77.53487396240234 29.02894401550293 C 84.32529449462891 34.5838737487793 90.5394287109375 40.86835479736328 96.01783752441406 47.71999740600586 L 1.000009655952454 124.2493896484375 Z" stroke="none"/>
    <path d="M 1.999992370605469 2.033416748046875 L 1.999992370605469 122.1599273681641 L 94.61138153076172 47.56875610351563 C 89.33092498779297 41.07302856445313 83.38054656982422 35.10301208496094 76.90170288085938 29.80294036865234 C 69.87277221679688 24.05290222167969 62.20573425292969 19.07857513427734 54.11355209350586 15.01811981201172 C 45.87764358520508 10.88553619384766 37.16855239868164 7.684173583984375 28.22817230224609 5.502937316894531 C 19.68154144287109 3.417755126953125 10.86831665039063 2.252487182617188 1.999992370605469 2.033416748046875 M -7.62939453125e-06 -7.62939453125e-06 C 39.52924346923828 0.336395263671875 74.69277191162109 18.98628234863281 97.41804504394531 47.87624359130859 L -7.62939453125e-06 126.3388137817383 L -7.62939453125e-06 -7.62939453125e-06 Z" stroke="none" fill="#fffdfd"/>
  </g>
  <g id="Intersection_2" data-name="Intersection 2" transform="translate(2.907 0)" fill="#13619d">
    <path d="M 122.4369964599609 125.0909423828125 L 1.193207621574402 97.55093383789063 C 4.240487098693848 84.16318511962891 9.468241691589355 71.4520263671875 16.73969459533691 59.75294876098633 C 24.04686164855957 47.99643325805664 33.20381164550781 37.59704971313477 43.9561767578125 28.84366607666016 C 54.80077743530273 20.01519966125488 66.93597412109375 13.13485050201416 80.02468109130859 8.393733024597168 C 93.56892395019531 3.487616777420044 107.8088455200195 1.00000011920929 122.3489074707031 1.00000011920929 C 122.3781814575195 1.00000011920929 122.4075317382813 1.000011444091797 122.4369964599609 1.000033736228943 L 122.4369964599609 125.0909423828125 Z" stroke="none"/>
    <path d="M 121.4369888305664 123.8383178710938 L 121.4369888305664 2.003293514251709 C 107.32958984375 2.104992151260376 93.51708984375 4.569966316223145 80.36525726318359 9.33394718170166 C 67.38227844238281 14.03676509857178 55.34491348266602 20.8617115020752 44.5875129699707 29.61918258666992 C 33.92120361328125 38.30249404907227 24.83760261535645 48.61856460571289 17.58902168273926 60.28083801269531 C 10.55303764343262 71.60102081298828 5.446143627166748 83.87657928466797 2.394289255142212 96.79827880859375 L 121.4369888305664 123.8383178710938 M 123.4369888305664 126.3435668945313 L 3.506192342683789e-06 98.30538177490234 C 12.32700347900391 42.07996368408203 62.42293167114258 1.629083840271051e-06 122.3489151000977 1.629083840271051e-06 C 122.7120208740234 1.629083840271051e-06 123.0746002197266 0.001674356404691935 123.4369888305664 0.004747083410620689 L 123.4369888305664 126.3435668945313 Z" stroke="none" fill="#fffdfd"/>
  </g>
  <g id="Ellipse_11" data-name="Ellipse 11" transform="translate(47.924 47.924)" fill="#fff" stroke="#fffdfd" stroke-width="2">
    <circle cx="78.421" cy="78.421" r="78.421" stroke="none"/>
    <circle cx="78.421" cy="78.421" r="77.421" fill="none"/>
  </g>
</svg>
